<svg id="Layer_1" data-name="Layer 1" xmlns="http://www.w3.org/2000/svg" viewBox="0 0 324.04 154.11"><defs><style>.cls-1{fill:#fff;}.cls-2{fill:#a7a9ac;}.cls-3{fill:#3c664d;}</style></defs><title>carpinito-brothers-green-shield-white2</title><path class="cls-1" d="M161.52,153.84a27.21,27.21,0,0,1-5.61-.55L10.75,122.46A13.94,13.94,0,0,1,0,109.11V22.7A12.77,12.77,0,0,1,12.79,9.94L159.84,0,311.28,9.94A12.77,12.77,0,0,1,324,22.7v86.41a13.91,13.91,0,0,1-10.73,13.34L167.07,153.3A27.22,27.22,0,0,1,161.52,153.84Z"/><path class="cls-2" d="M161.48,154.11a27.21,27.21,0,0,1-5.61-.55L10.71,122.73A13.94,13.94,0,0,1,0,109.38V23A12.77,12.77,0,0,1,12.76,10.21L159.8.27l151.44,9.94A12.77,12.77,0,0,1,324,23v86.41a13.92,13.92,0,0,1-10.72,13.34L167,153.57A27.37,27.37,0,0,1,161.48,154.11ZM12.76,15.38A7.6,7.6,0,0,0,5.16,23v86.41a8.67,8.67,0,0,0,6.67,8.3L157,148.7a23.67,23.67,0,0,0,8.93,0l146.24-31a8.67,8.67,0,0,0,6.68-8.3V23a7.6,7.6,0,0,0-7.6-7.59L160.2,5.25Z"/><path class="cls-3" d="M9,28.43v80.95a4.85,4.85,0,0,0,3.63,4.52l145.16,31a20.13,20.13,0,0,0,7.26,0l146.24-31a4.85,4.85,0,0,0,3.63-4.52V23a3.73,3.73,0,0,0-3.72-3.72L159.08,9.12,12.76,19.25A3.73,3.73,0,0,0,9,23Z"/><path class="cls-1" d="M53.91,33.76q-6.49.62-13,1.27c-5.58.55-10.12,5.39-10.11,10.75V87.31c0,5.37,4.44,9,9.93,8.2l12.83-1.94c5.53-.83,10.09-5.7,10.13-10.9l.06-9.44q-5.77.72-11.54,1.48c0,2.72,0,5.44,0,8.16l-10,1.4q.06-19.17.13-38.37l10-1.08c0,2.72,0,5.45,0,8.17q5.77-.66,11.57-1.27Q64,47,64,42.27C64,37.07,59.5,33.23,53.91,33.76Z"/><path class="cls-1" d="M77.93,33.06Q71.81,58.94,65.74,85.34,71,84.6,76.28,83.92c.52-2.37,1-4.73,1.55-7.1q5.49-.66,11-1.28c.48,2.22,1,4.45,1.45,6.67q5.3-.61,10.61-1.15Q95.15,56.79,89.45,32.13C85.61,32.42,81.77,32.74,77.93,33.06Zm9,33.53-7,.76q1.84-8,3.7-15.87Q85.26,59.06,86.89,66.59Z"/><path class="cls-1" d="M131.87,52.19q0-7.34.08-14.66c0-4.3-3.92-7.66-8.77-7.45q-10.05.45-20.09,1.09l-.39,49.71q5.05-.5,10.11-.92.06-9.42.13-18.84l3.6-.26q2.43,9.24,4.87,18.43c3.58-.26,7.15-.48,10.73-.67q-3-9.48-6-19C129.89,58.47,131.85,55.93,131.87,52.19Zm-10-13.09q0,6.24-.08,12.47-4.38.24-8.76.54l.09-12.53Q117.47,39.32,121.85,39.1Z"/><path class="cls-1" d="M157.07,29.2q-10,.07-20.11.37-.09,24.41-.2,48.82c3.38-.16,6.77-.29,10.15-.39q0-9.28.05-18.57c3.36-.09,6.72-.14,10.08-.18,4.88,0,8.85-3.5,8.84-7.77V36.91C165.88,32.65,161.92,29.16,157.07,29.2Zm-1.29,8.87q0,6.16,0,12.33c-2.93,0-5.86.09-8.78.15l0-12.34Q151.4,38.12,155.78,38.07Z"/><path class="cls-1" d="M169.93,77.78q5.07.06,10.16.2Q180,53.65,180,29.32c-3.36-.06-6.72-.11-10.08-.13Q169.9,53.49,169.93,77.78Z"/><path class="cls-1" d="M203.9,52q-4.34-11.19-8.64-22.26-5.16-.18-10.32-.3.09,24.36.17,48.72c3.38.13,6.77.28,10.15.46l-.12-25.07q5.09,12.75,10.21,25.69c3,.21,5.9.43,8.84.68q-.16-24.68-.35-49.36c-3.35-.18-6.71-.35-10.07-.49Q203.83,41,203.9,52Z"/><path class="cls-1" d="M219.19,80.33c3.37.31,6.74.63,10.1,1q-.19-24.93-.4-49.87c-3.36-.22-6.71-.44-10.07-.63Q219,55.58,219.19,80.33Z"/><path class="cls-1" d="M232.06,40.79c3.13.24,6.27.5,9.4.77q.16,20.58.34,41.16,5,.6,10,1.25-.16-20.74-.34-41.5,4.69.44,9.38.92c0-3.11,0-6.23-.07-9.34Q246.42,32.7,232,31.67C232,34.71,232,37.75,232.06,40.79Z"/><path class="cls-1" d="M286.8,35q-6.49-.66-13-1.27c-5.59-.53-10.11,3.31-10.07,8.51q.13,20.2.28,40.4c0,5.2,4.59,10.08,10.12,10.9L287,95.51c5.5.84,9.94-2.83,9.94-8.2V45.78C296.92,40.42,292.38,35.58,286.8,35ZM285.37,45.9q.06,19.18.12,38.37l-9.95-1.4-.21-38.05Z"/><path class="cls-1" d="M109.67,104.68a5,5,0,0,1,2.45,4c-.16,3.31-1.93,5.07-5.31,5.26H96.92V96.39h9.33q4.44.26,4.69,5.16C110.88,103.12,110.46,104.16,109.67,104.68Zm-9.22-1.25h4.92a2,2,0,0,0,2.18-2.19c0-.86-.75-1.31-2.14-1.36h-5Zm0,7.78h5.74a2.29,2.29,0,0,0,2.53-2.54c0-1.13-.87-1.71-2.49-1.76h-5.78Z"/><path class="cls-1" d="M126.2,106.29l4.38,7.66h-4l-4.2-7.26h-3.21V114h-3.52V96.38h7.67c4.1,0,6.15,1.68,6.15,5.06C129.44,104,128.36,105.59,126.2,106.29Zm-7.06-2.88h4.92c1.41,0,2.14-.67,2.18-1.94s-.76-1.76-2.15-1.8h-5Z"/><path class="cls-1" d="M134,111.43a9.06,9.06,0,1,1,6.27,2.52A8.54,8.54,0,0,1,134,111.43Zm6.28-.76a5,5,0,0,0,3.8-1.58,6,6,0,0,0,0-7.85,5.38,5.38,0,0,0-7.62,0,6,6,0,0,0,0,7.85A5,5,0,0,0,140.32,110.67Z"/><path class="cls-1" d="M166.05,96.38v3.28h-5.86V114h-3.51V99.66h-5.86V96.38Z"/><path class="cls-1" d="M168.66,114V96.38h3.52v7h8.19v-7h3.51v17.58h-3.51v-7.26h-8.19V114Z"/><path class="cls-1" d="M187.63,114V96.39h12.91v3.28h-9.39v3.75h7v3.26h-7v4h9.37V114Z"/><path class="cls-1" d="M214.66,106.29,219,114h-4l-4.2-7.26H207.6V114h-3.52V96.38h7.66c4.1,0,6.15,1.68,6.15,5.06C217.89,104,216.82,105.59,214.66,106.29Zm-7.06-2.88h4.92c1.41,0,2.14-.67,2.18-1.94s-.76-1.76-2.15-1.8h-5Z"/><path class="cls-1" d="M230.38,97a8.17,8.17,0,0,1,2.52,1.76l-2.34,2.34a4,4,0,0,0-3.28-1.4q-2.11,0-2.7,1a1.37,1.37,0,0,0,0,1.7,4.66,4.66,0,0,0,2.7,1.06,8.66,8.66,0,0,1,4,1.46,4.4,4.4,0,0,1,1.82,3.92,4.53,4.53,0,0,1-1.94,3.64,7.15,7.15,0,0,1-4.52,1.52,10.42,10.42,0,0,1-4.09-.7,8.94,8.94,0,0,1-2.81-1.88l2.34-2.34a5.58,5.58,0,0,0,4,1.64c1.56,0,2.53-.33,2.92-1a1.84,1.84,0,0,0,0-2c-.39-.66-1.36-1.07-2.92-1.23a9.25,9.25,0,0,1-3.87-1.29,3.88,3.88,0,0,1-1.76-3.63,4.38,4.38,0,0,1,2-3.74,7,7,0,0,1,4.11-1.41A9.81,9.81,0,0,1,230.38,97Z"/><polygon class="cls-1" points="88.88 103.8 61.36 105.72 88.88 107.25 88.88 103.8"/><polygon class="cls-1" points="239.41 103.8 266.93 105.72 239.41 107.25 239.41 103.8"/></svg>